<svg version="1.1" id="Layer_1" xmlns="http://www.w3.org/2000/svg" xmlns:xlink="http://www.w3.org/1999/xlink" x="0px" y="0px"
	 width="100%" viewBox="0 0 160 161" enable-background="new 0 0 160 161" xml:space="preserve">
<path fill="#FEFEFF" opacity="1.000000" stroke="none" 
	d="
M92.000000,162.000000 
	C61.333336,162.000000 31.166674,162.000000 1.000008,162.000000 
	C1.000005,108.333344 1.000005,54.666687 1.000003,1.000023 
	C54.333317,1.000015 107.666634,1.000015 160.999969,1.000008 
	C160.999969,54.666645 160.999969,108.333290 160.999985,161.999969 
	C138.166672,162.000000 115.333336,162.000000 92.000000,162.000000 
M104.800110,47.150017 
	C104.800110,47.150017 104.642860,47.281021 104.758553,47.932198 
	C105.438019,48.767849 106.117493,49.603504 107.182335,50.995258 
	C109.129532,53.996540 111.076729,56.997826 113.074936,60.600025 
	C113.592834,61.187138 114.110741,61.774250 114.852386,61.965359 
	C114.852386,61.965359 114.607544,62.349579 114.760635,63.020329 
	C115.997940,64.915413 116.955330,67.123177 118.583954,68.581139 
	C119.473839,69.377777 121.499718,68.905457 122.998932,69.000092 
	C122.998932,69.000092 123.006248,69.014442 123.590569,68.700577 
	C124.728539,66.797928 125.866516,64.895271 126.997719,62.998657 
	C126.997719,62.998657 126.994057,63.007168 127.594742,62.702465 
	C130.075485,58.803829 132.556229,54.905190 134.995117,51.002453 
	C134.995117,51.002453 135.018356,51.037521 135.573425,50.724506 
	C136.319733,49.452362 137.066040,48.180218 137.936813,46.890507 
	C137.936813,46.890507 137.893417,46.772556 138.423981,46.424736 
	C139.284851,44.949280 140.145721,43.473820 140.998779,41.999832 
	C140.998779,41.999832 140.999969,42.008625 141.610443,41.633598 
	C143.614838,38.793610 143.670090,36.272217 139.553741,36.200302 
	C127.246315,35.985275 114.930038,35.979774 102.623291,36.212986 
	C99.142334,36.278946 97.577599,38.157879 100.950798,41.179707 
	C100.950798,41.179707 100.672600,41.304512 100.743202,41.928310 
	C101.382462,42.719955 102.021713,43.511604 102.946404,44.080860 
	C102.946404,44.080860 102.638756,44.271324 102.735512,44.908100 
	C103.390594,45.715050 104.045670,46.522003 104.800110,47.150017 
M76.979431,43.970966 
	C76.979431,43.970966 76.935112,43.906254 76.386192,44.219620 
	C75.895950,45.132313 75.405708,46.045006 74.992348,46.984859 
	C74.992348,46.984859 74.946930,46.917141 74.383705,47.240135 
	C73.750641,48.342335 73.117577,49.444534 72.651573,50.731968 
	C72.651573,50.731968 72.437935,50.603203 71.948013,50.937847 
	C71.456017,51.789398 70.964020,52.640945 70.503677,53.587521 
	C70.503677,53.587521 70.404198,53.599167 69.909035,53.980572 
	C68.897614,55.647610 67.886185,57.314648 66.331726,59.368107 
	C64.139893,62.676056 61.948055,65.984001 59.308083,69.968285 
	C61.473801,70.842278 63.145985,71.618217 64.884804,72.192337 
	C66.902931,72.858688 68.979530,73.347908 71.318810,74.585793 
	C71.416977,77.309151 72.414146,80.430527 71.422112,82.671211 
	C69.486382,87.043411 66.438011,90.923004 63.286911,95.356972 
	C56.711075,105.415878 56.785458,101.893730 63.103672,111.728050 
	C64.695969,114.206467 66.456314,116.576904 68.310448,119.650475 
	C71.778961,124.888580 75.274040,130.109360 78.706017,135.371292 
	C80.769249,138.534637 82.747437,138.410873 84.701195,135.338531 
	C86.467224,132.561386 88.169533,129.743698 89.986458,126.950470 
	C89.986458,126.950470 89.930763,126.883942 90.471710,126.503609 
	C94.670853,120.016693 98.869995,113.529778 103.000694,107.005951 
	C103.000694,107.005951 103.050041,107.066086 103.605835,106.773796 
	C103.817886,105.004936 104.819550,102.772964 104.101913,101.549370 
	C101.357979,96.870888 98.060928,92.516800 95.005234,88.009804 
	C95.005234,88.009804 94.961807,88.024467 94.854561,87.320808 
	C92.088463,83.290062 88.668114,79.394348 92.042877,74.038048 
	C92.042877,74.038048 92.057930,74.125984 92.799973,73.891975 
	C95.186302,73.264519 97.572624,72.637070 100.488228,72.123497 
	C100.654320,72.052925 100.820412,71.982361 101.678337,72.004303 
	C102.047310,70.621262 103.121590,68.893097 102.646843,67.922920 
	C101.446762,65.470390 99.550255,63.358627 97.976959,61.041374 
	C97.976959,61.041374 97.895042,61.041862 97.842323,60.522831 
	C97.580360,60.315350 97.318405,60.107872 97.018456,59.983814 
	C97.018456,59.983814 97.097069,59.936668 96.975334,59.253601 
	C95.003960,56.477989 93.032578,53.702381 91.007774,50.989136 
	C91.007774,50.989136 91.086411,50.965496 91.029839,50.383331 
	C90.670349,49.949398 90.310867,49.515465 90.000992,49.024357 
	C90.000992,49.024357 89.926559,49.038105 89.808464,48.355530 
	C87.204903,45.313625 84.601349,42.271725 81.344627,39.089428 
	C80.168480,40.235607 78.992332,41.381783 77.285889,42.839596 
	C77.157623,43.217972 77.029358,43.596344 76.979431,43.970966 
M55.514935,52.660355 
	C55.956551,51.748280 56.398170,50.836205 56.996616,49.574299 
	C56.996616,49.574299 57.059391,49.196098 57.647491,48.974274 
	C58.089680,48.307621 58.531864,47.640968 59.000000,46.999390 
	C59.000000,46.999390 58.972431,46.977779 59.550247,46.622986 
	C60.476906,45.252476 61.582291,43.966454 62.281067,42.488228 
	C63.012444,40.941032 63.353149,39.209167 63.864620,37.558025 
	C62.191959,37.072105 60.523731,36.183743 58.845924,36.165276 
	C47.575096,36.041225 36.301899,36.052383 25.030178,36.126553 
	C20.316292,36.157570 19.625465,37.592308 22.400162,42.336655 
	C22.882057,42.970516 23.392962,43.584572 23.841415,44.241272 
	C29.007442,51.806187 34.164001,59.377571 39.489185,67.237465 
	C39.632648,67.416389 39.814026,67.539436 40.026451,67.848450 
	C40.026451,67.848450 40.241211,67.959885 40.287342,68.523552 
	C41.986786,71.640823 42.990162,69.270164 44.446770,67.802605 
	C44.682613,67.690071 44.892391,67.540886 45.760792,67.192245 
	C47.497528,64.451797 49.234264,61.711353 51.000145,58.999264 
	C51.000145,58.999264 50.969101,58.974529 51.504532,58.657749 
	C52.000710,57.767208 52.496883,56.876663 52.999146,55.998352 
	C52.999146,55.998352 52.986675,55.996658 53.528492,55.681828 
	C54.015751,54.782162 54.503010,53.882492 54.999023,52.997093 
	C54.999023,52.997093 54.983910,52.995415 55.514935,52.660355 
z"/>
<path fill="#6205EB" opacity="1.000000" stroke="none" 
	d="
M68.139442,118.996964 
	C66.456314,116.576904 64.695969,114.206467 63.103672,111.728050 
	C56.785458,101.893730 56.711075,105.415878 64.001617,95.180374 
	C66.625221,95.323280 68.527122,95.697052 70.445282,95.944946 
	C71.950233,96.139435 73.475304,96.178246 74.991432,96.286224 
	C74.991432,94.725807 74.991432,93.165382 74.991432,91.604965 
	C75.285118,92.022919 75.578804,92.440872 75.872490,92.858833 
	C76.996452,91.063744 78.261032,89.339508 79.209969,87.456223 
	C80.492485,84.910904 82.737511,82.304276 78.773270,79.828011 
	C76.993317,78.716164 75.749794,76.778061 74.105690,75.402771 
	C73.258438,74.694046 72.066788,74.397041 71.030754,73.914001 
	C68.979530,73.347908 66.902931,72.858688 64.884804,72.192337 
	C63.145985,71.618217 61.473801,70.842278 59.308083,69.968285 
	C61.948055,65.984001 64.139893,62.676056 66.970314,59.149929 
	C68.540672,57.154224 69.472435,55.376698 70.404198,53.599167 
	C70.404198,53.599167 70.503677,53.587521 70.869087,53.599770 
	C71.635643,52.609081 72.036789,51.606140 72.437935,50.603203 
	C72.437935,50.603203 72.651573,50.731968 72.946884,50.681099 
	C73.810440,49.392532 74.378685,48.154839 74.946930,46.917141 
	C74.946930,46.917141 74.992348,46.984859 75.312958,46.936226 
	C76.067413,45.893814 76.501259,44.900036 76.935112,43.906254 
	C76.935112,43.906254 76.979431,43.970966 77.208740,43.819412 
	C77.564095,43.287891 77.690140,42.907928 77.816185,42.527962 
	C78.992332,41.381783 80.168480,40.235607 81.826118,39.453735 
	C84.847260,42.891396 87.386909,45.964748 89.926559,49.038101 
	C89.926559,49.038105 90.000992,49.024357 89.992607,49.352901 
	C90.351624,50.109463 90.719017,50.537479 91.086411,50.965496 
	C91.086411,50.965496 91.007774,50.989136 91.009537,51.337067 
	C93.039894,54.435555 95.068481,57.186111 97.097069,59.936668 
	C97.097069,59.936668 97.018456,59.983814 97.087799,60.188560 
	C97.403114,60.609497 97.649078,60.825680 97.895042,61.041862 
	C97.895042,61.041862 97.976959,61.041374 97.960251,61.476822 
	C98.913551,63.974060 100.040955,65.980728 100.790131,68.119858 
	C101.191589,69.266159 100.942184,70.640419 100.986496,71.911804 
	C100.820412,71.982361 100.654320,72.052925 99.954727,71.854797 
	C95.367119,67.795181 93.982124,71.742165 92.057930,74.125984 
	C92.057930,74.125984 92.042877,74.038048 91.680496,74.105606 
	C88.267456,79.752663 89.680969,85.126060 94.961807,88.024467 
	C94.961807,88.024467 95.005234,88.009804 94.987885,88.397049 
	C96.518196,91.613510 98.266914,94.354424 99.558929,97.295937 
	C100.946274,100.454430 101.904541,103.801376 103.050041,107.066086 
	C103.050041,107.066086 103.000694,107.005951 102.673668,107.045593 
	C98.208015,113.684807 94.069382,120.284370 89.930756,126.883942 
	C89.930763,126.883942 89.986458,126.950470 89.599792,126.992569 
	C86.344559,129.349564 83.475998,131.664459 80.323639,134.208374 
	C80.006073,133.773438 79.028008,132.311569 77.927025,130.949036 
	C74.690659,126.943871 71.405495,122.978134 68.139442,118.996964 
z"/>
<path fill="#6106EA" opacity="1.000000" stroke="none" 
	d="
M39.323078,66.947235 
	C34.164001,59.377571 29.007442,51.806187 23.841415,44.241272 
	C23.392962,43.584572 22.882057,42.970516 22.235607,41.615345 
	C21.700907,37.738060 23.875687,37.941078 25.934731,37.942883 
	C36.749420,37.952362 47.564224,37.928528 58.378681,37.980259 
	C59.564487,37.985935 60.748337,38.400703 61.969849,38.632706 
	C60.834061,41.794846 59.903248,44.386314 58.972435,46.977779 
	C58.972431,46.977779 59.000000,46.999390 58.653381,47.035248 
	C57.890972,47.779434 57.475182,48.487766 57.059391,49.196098 
	C57.059391,49.196098 56.996616,49.574299 56.591522,49.835960 
	C55.785591,51.063553 55.384750,52.029484 54.983910,52.995415 
	C54.983910,52.995415 54.999023,52.997093 54.653122,53.047157 
	C53.867043,54.063698 53.426857,55.030178 52.986675,55.996658 
	C52.986675,55.996658 52.999146,55.998352 52.654442,56.044720 
	C51.862862,57.052235 51.415985,58.013382 50.969101,58.974533 
	C50.969101,58.974529 51.000145,58.999264 50.638054,59.024429 
	C48.542683,61.818081 46.809395,64.586563 45.076111,67.355042 
	C44.892391,67.540886 44.682613,67.690071 43.901283,67.922668 
	C42.317600,68.015121 41.279404,67.987503 40.241211,67.959885 
	C40.241211,67.959885 40.026451,67.848450 39.957142,67.576477 
	C39.745121,67.113518 39.556870,66.994423 39.323078,66.947235 
z"/>
<path fill="#6004EA" opacity="1.000000" stroke="none" 
	d="
M113.023926,59.999107 
	C111.076729,56.997826 109.129532,53.996540 106.967201,50.368050 
	C106.048996,48.920902 105.345924,48.100964 104.642860,47.281021 
	C104.642860,47.281021 104.800110,47.150017 104.741791,46.898666 
	C104.001892,45.855316 103.320320,45.063324 102.638748,44.271324 
	C102.638756,44.271324 102.946404,44.080860 102.891647,43.807861 
	C102.115463,42.791416 101.394028,42.047962 100.672600,41.304512 
	C100.672600,41.304512 100.950798,41.179707 100.920395,40.802513 
	C102.220741,39.600800 103.538895,38.085541 104.884216,38.061020 
	C115.652245,37.864788 126.426926,38.051224 137.196045,37.887829 
	C140.393997,37.839310 141.345444,39.144234 140.999969,42.008625 
	C140.999969,42.008625 140.998779,41.999832 140.646515,42.035931 
	C139.493988,43.638874 138.693710,45.205715 137.893417,46.772556 
	C137.893417,46.772556 137.936813,46.890507 137.530975,46.962780 
	C136.422867,48.369209 135.720612,49.703365 135.018356,51.037521 
	C135.018356,51.037521 134.995117,51.002453 134.694931,51.122086 
	C131.927841,55.163536 129.460953,59.085350 126.994057,63.007164 
	C126.994057,63.007168 126.997719,62.998657 126.646965,63.034573 
	C125.199562,65.051804 124.102905,67.033127 123.006248,69.014442 
	C123.006248,69.014442 122.998932,69.000092 122.637177,68.983337 
	C120.844719,67.791618 119.393402,66.640633 117.989723,65.434219 
	C116.833046,64.440086 115.732796,63.380283 114.607544,62.349579 
	C114.607544,62.349579 114.852386,61.965359 114.771484,61.848793 
	C114.135033,61.154522 113.579475,60.576817 113.023926,59.999107 
z"/>
<path fill="#5F03E9" opacity="1.000000" stroke="none" 
	d="
M71.174782,74.249893 
	C72.066788,74.397041 73.258438,74.694046 74.105690,75.402771 
	C75.749794,76.778061 76.993317,78.716164 78.773270,79.828011 
	C82.737511,82.304276 80.492485,84.910904 79.209969,87.456223 
	C78.261032,89.339508 76.996452,91.063744 75.872490,92.858833 
	C75.578804,92.440872 75.285118,92.022919 74.991432,91.604965 
	C74.991432,93.165382 74.991432,94.725807 74.991432,96.286224 
	C73.475304,96.178246 71.950233,96.139435 70.445282,95.944946 
	C68.527122,95.697052 66.625221,95.323280 64.283333,95.005173 
	C66.438011,90.923004 69.486382,87.043411 71.422112,82.671211 
	C72.414146,80.430527 71.416977,77.309151 71.174782,74.249893 
z"/>
<path fill="#6A2ECE" opacity="1.000000" stroke="none" 
	d="
M59.261341,46.800385 
	C59.903248,44.386314 60.834061,41.794846 61.969849,38.632706 
	C60.748337,38.400703 59.564487,37.985935 58.378681,37.980259 
	C47.564224,37.928528 36.749420,37.952362 25.934731,37.942883 
	C23.875687,37.941078 21.700907,37.738060 22.078953,41.298775 
	C19.625465,37.592308 20.316292,36.157570 25.030178,36.126553 
	C36.301899,36.052383 47.575096,36.041225 58.845924,36.165276 
	C60.523731,36.183743 62.191959,37.072105 63.864616,37.558025 
	C63.353149,39.209167 63.012444,40.941032 62.281067,42.488228 
	C61.582291,43.966454 60.476906,45.252476 59.261341,46.800385 
z"/>
<path fill="#6B2FD0" opacity="1.000000" stroke="none" 
	d="
M141.305206,41.821114 
	C141.345444,39.144234 140.393997,37.839310 137.196045,37.887829 
	C126.426926,38.051224 115.652245,37.864788 104.884216,38.061020 
	C103.538895,38.085541 102.220741,39.600800 100.782753,40.858383 
	C97.577599,38.157879 99.142334,36.278946 102.623291,36.212986 
	C114.930038,35.979774 127.246315,35.985275 139.553741,36.200302 
	C143.670090,36.272217 143.614838,38.793610 141.305206,41.821114 
z"/>
<path fill="#6921D8" opacity="1.000000" stroke="none" 
	d="
M68.224945,119.323715 
	C71.405495,122.978134 74.690659,126.943871 77.927025,130.949036 
	C79.028008,132.311569 80.006073,133.773438 80.323639,134.208374 
	C83.475998,131.664459 86.344559,129.349564 89.556534,126.989273 
	C88.169533,129.743698 86.467224,132.561386 84.701195,135.338531 
	C82.747437,138.410873 80.769249,138.534637 78.706017,135.371292 
	C75.274040,130.109360 71.778961,124.888580 68.224945,119.323715 
z"/>
<path fill="#6921D8" opacity="1.000000" stroke="none" 
	d="
M90.201233,126.693771 
	C94.069382,120.284370 98.208015,113.684807 102.707886,107.064049 
	C98.869995,113.529778 94.670853,120.016693 90.201233,126.693771 
z"/>
<path fill="#6921D8" opacity="1.000000" stroke="none" 
	d="
M103.327942,106.919937 
	C101.904541,103.801376 100.946274,100.454430 99.558929,97.295937 
	C98.266914,94.354424 96.518196,91.613510 94.970467,88.412933 
	C98.060928,92.516800 101.357979,96.870888 104.101913,101.549370 
	C104.819550,102.772964 103.817886,105.004936 103.327942,106.919937 
z"/>
<path fill="#6B2FD0" opacity="1.000000" stroke="none" 
	d="
M127.294403,62.854813 
	C129.460953,59.085350 131.927841,55.163536 134.715851,51.124138 
	C132.556229,54.905190 130.075485,58.803829 127.294403,62.854813 
z"/>
<path fill="#6921D8" opacity="1.000000" stroke="none" 
	d="
M89.867508,48.696815 
	C87.386909,45.964748 84.847260,42.891396 82.152695,39.523933 
	C84.601349,42.271725 87.204903,45.313625 89.867508,48.696815 
z"/>
<path fill="#6921D8" opacity="1.000000" stroke="none" 
	d="
M101.332413,71.958054 
	C100.942184,70.640419 101.191589,69.266159 100.790131,68.119858 
	C100.040955,65.980728 98.913551,63.974060 97.938148,61.511311 
	C99.550255,63.358627 101.446762,65.470390 102.646843,67.922920 
	C103.121590,68.893097 102.047310,70.621262 101.332413,71.958054 
z"/>
<path fill="#6921D8" opacity="1.000000" stroke="none" 
	d="
M94.908188,87.672638 
	C89.680969,85.126060 88.267456,79.752663 91.719894,74.126526 
	C88.668114,79.394348 92.088463,83.290062 94.908188,87.672638 
z"/>
<path fill="#6B2FD0" opacity="1.000000" stroke="none" 
	d="
M114.684090,62.684952 
	C115.732796,63.380283 116.833046,64.440086 117.989723,65.434219 
	C119.393402,66.640633 120.844719,67.791618 122.644363,68.985992 
	C121.499718,68.905457 119.473839,69.377777 118.583954,68.581139 
	C116.955330,67.123177 115.997940,64.915413 114.684090,62.684952 
z"/>
<path fill="#6921D8" opacity="1.000000" stroke="none" 
	d="
M92.428955,74.008980 
	C93.982124,71.742165 95.367119,67.795181 99.690086,71.797852 
	C97.572624,72.637070 95.186302,73.264519 92.428955,74.008980 
z"/>
<path fill="#6921D8" opacity="1.000000" stroke="none" 
	d="
M97.036201,59.595135 
	C95.068481,57.186111 93.039894,54.435555 91.036255,51.305885 
	C93.032578,53.702381 95.003960,56.477989 97.036201,59.595135 
z"/>
<path fill="#6A2ECE" opacity="1.000000" stroke="none" 
	d="
M45.418449,67.273643 
	C46.809395,64.586563 48.542683,61.818081 50.623482,59.010254 
	C49.234264,61.711353 47.497528,64.451797 45.418449,67.273643 
z"/>
<path fill="#6B2FD0" opacity="1.000000" stroke="none" 
	d="
M123.298409,68.857513 
	C124.102905,67.033127 125.199562,65.051804 126.650345,63.031555 
	C125.866516,64.895271 124.728539,66.797928 123.298409,68.857513 
z"/>
<path fill="#601BD1" opacity="1.000000" stroke="none" 
	d="
M70.156616,53.789871 
	C69.472435,55.376698 68.540672,57.154224 67.241837,58.956718 
	C67.886185,57.314648 68.897614,55.647610 70.156616,53.789871 
z"/>
<path fill="#6A2ECE" opacity="1.000000" stroke="none" 
	d="
M40.264275,68.241714 
	C41.279404,67.987503 42.317600,68.015121 43.746689,68.038971 
	C42.990162,69.270164 41.986786,71.640823 40.264275,68.241714 
z"/>
<path fill="#6B2FD0" opacity="1.000000" stroke="none" 
	d="
M138.158691,46.598648 
	C138.693710,45.205715 139.493988,43.638874 140.650421,42.035194 
	C140.145721,43.473820 139.284851,44.949280 138.158691,46.598648 
z"/>
<path fill="#6B2FD0" opacity="1.000000" stroke="none" 
	d="
M135.295898,50.881012 
	C135.720612,49.703365 136.422867,48.369209 137.468750,46.971565 
	C137.066040,48.180218 136.319733,49.452362 135.295898,50.881012 
z"/>
<path fill="#601BD1" opacity="1.000000" stroke="none" 
	d="
M74.665314,47.078636 
	C74.378685,48.154839 73.810440,49.392532 72.863358,50.588478 
	C73.117577,49.444534 73.750641,48.342335 74.665314,47.078636 
z"/>
<path fill="#6B2FD0" opacity="1.000000" stroke="none" 
	d="
M100.707901,41.616409 
	C101.394028,42.047962 102.115463,42.791416 102.748932,43.919060 
	C102.021713,43.511604 101.382462,42.719955 100.707901,41.616409 
z"/>
<path fill="#6A2ECE" opacity="1.000000" stroke="none" 
	d="
M51.236816,58.816139 
	C51.415985,58.013382 51.862862,57.052235 52.651402,56.038605 
	C52.496883,56.876663 52.000710,57.767208 51.236816,58.816139 
z"/>
<path fill="#6A2ECE" opacity="1.000000" stroke="none" 
	d="
M53.257584,55.839241 
	C53.426857,55.030178 53.867043,54.063698 54.648746,53.040020 
	C54.503010,53.882492 54.015751,54.782162 53.257584,55.839241 
z"/>
<path fill="#601BD1" opacity="1.000000" stroke="none" 
	d="
M72.192978,50.770523 
	C72.036789,51.606140 71.635643,52.609081 70.853256,53.552258 
	C70.964020,52.640945 71.456017,51.789398 72.192978,50.770523 
z"/>
<path fill="#6A2ECE" opacity="1.000000" stroke="none" 
	d="
M55.249420,52.827885 
	C55.384750,52.029484 55.785591,51.063553 56.513107,50.010876 
	C56.398170,50.836205 55.956551,51.748280 55.249420,52.827885 
z"/>
<path fill="#601BD1" opacity="1.000000" stroke="none" 
	d="
M76.660652,44.062935 
	C76.501259,44.900036 76.067413,45.893814 75.274513,46.922649 
	C75.405708,46.045006 75.895950,45.132313 76.660652,44.062935 
z"/>
<path fill="#6B2FD0" opacity="1.000000" stroke="none" 
	d="
M104.700706,47.606613 
	C105.345924,48.100964 106.048996,48.920902 106.774513,50.089996 
	C106.117493,49.603504 105.438019,48.767849 104.700706,47.606613 
z"/>
<path fill="#6A2ECE" opacity="1.000000" stroke="none" 
	d="
M57.353439,49.085186 
	C57.475182,48.487766 57.890972,47.779434 58.640404,47.022713 
	C58.531864,47.640968 58.089680,48.307621 57.353439,49.085186 
z"/>
<path fill="#6B2FD0" opacity="1.000000" stroke="none" 
	d="
M102.687134,44.589714 
	C103.320320,45.063324 104.001892,45.855316 104.692108,46.988132 
	C104.045670,46.522003 103.390594,45.715050 102.687134,44.589714 
z"/>
<path fill="#6B2FD0" opacity="1.000000" stroke="none" 
	d="
M113.049431,60.299568 
	C113.579475,60.576817 114.135033,61.154522 114.659615,62.046795 
	C114.110741,61.774250 113.592834,61.187138 113.049431,60.299568 
z"/>
<path fill="#6921D8" opacity="1.000000" stroke="none" 
	d="
M91.058121,50.674416 
	C90.719017,50.537479 90.351624,50.109463 89.967804,49.381485 
	C90.310867,49.515465 90.670349,49.949398 91.058121,50.674416 
z"/>
<path fill="#6921D8" opacity="1.000000" stroke="none" 
	d="
M97.868683,60.782349 
	C97.649078,60.825680 97.403114,60.609497 97.106796,60.146851 
	C97.318405,60.107872 97.580360,60.315350 97.868683,60.782349 
z"/>
<path fill="#6A2ECE" opacity="1.000000" stroke="none" 
	d="
M39.406132,67.092346 
	C39.556870,66.994423 39.745121,67.113518 39.960571,67.455551 
	C39.814026,67.539436 39.632648,67.416389 39.406132,67.092346 
z"/>
<path fill="#601BD1" opacity="1.000000" stroke="none" 
	d="
M77.551041,42.683781 
	C77.690140,42.907928 77.564095,43.287891 77.169571,43.821285 
	C77.029358,43.596344 77.157623,43.217972 77.551041,42.683781 
z"/>
</svg>